<svg version="1.1" xmlns="http://www.w3.org/2000/svg" style="display: block;" viewBox="0 0 2048 1280" width="1080" height="675" preserveAspectRatio="none">
<defs>
	<linearGradient id="Gradient1" gradientUnits="userSpaceOnUse" x1="824.321" y1="450.116" x2="823.738" y2="497.071">
		<stop class="stop0" offset="0" stop-opacity="1" stop-color="rgb(245,182,64)"/>
		<stop class="stop1" offset="1" stop-opacity="1" stop-color="rgb(217,149,45)"/>
	</linearGradient>
	<linearGradient id="Gradient2" gradientUnits="userSpaceOnUse" x1="940.298" y1="430.612" x2="941.78" y2="422.986">
		<stop class="stop0" offset="0" stop-opacity="1" stop-color="rgb(154,115,57)"/>
		<stop class="stop1" offset="1" stop-opacity="1" stop-color="rgb(118,69,25)"/>
	</linearGradient>
</defs>
<path transform="translate(0,0)" fill="rgb(251,175,6)" d="M 948.09 417.199 C 953.36 414.101 989.853 415.668 997.021 417.932 L 998.399 417.737 L 1006.82 418.325 L 1013.09 419.321 L 1016.22 422.304 L 1025.4 426.449 C 1039.07 434.488 1034.1 428.407 1041.96 425.946 C 1042 431.512 1041.13 437.518 1044.25 441.725 C 1046.55 442.214 1047.14 442.297 1049.49 442.43 C 1060.35 447.591 1064.96 456.773 1057.9 467.367 C 1054.36 471.859 1050.65 473.091 1045.31 475.178 C 1045.59 479.511 1045.98 484.11 1045.9 488.426 C 1046.09 497.872 1046.57 507.308 1047.35 516.724 L 1047.86 517.768 C 1048.17 525.072 1048.57 532.372 1049.05 539.666 C 1063.62 543.764 1086.13 553.298 1101.13 558.92 C 1145.68 576.056 1190.12 593.509 1234.43 611.277 C 1244.22 610.944 1251.89 611.268 1261.71 611.783 C 1266.86 612.025 1281.35 612.568 1286.09 611.537 C 1304.57 610.011 1323.84 611.676 1342.42 611.802 C 1353.85 611.879 1365.86 610.579 1377.19 611.668 C 1380.41 611.978 1384.76 612.663 1387.32 614.778 C 1389.23 616.356 1389.78 619.044 1389.88 621.425 C 1390.45 635.822 1361.38 695.561 1354.47 714.023 C 1363.11 738.306 1377.35 762.668 1387.06 786.968 C 1397.67 813.557 1369.34 806.533 1352.4 807.061 C 1330.14 807.755 1306.77 805.846 1284.42 808.226 C 1286.2 828.685 1288.44 843.086 1266.03 852.039 C 1252.44 860.324 1227.87 869.387 1212.82 875.279 C 1194.43 882.672 1176.11 890.207 1157.84 897.885 C 1129.09 910.153 1100.42 924.767 1071.08 935.957 C 1050.03 943.984 1013.89 965.605 991.71 965.311 C 989.133 965.853 986.527 966.338 983.888 966.396 C 973.93 966.611 963.776 964.776 954.41 961.45 C 945.066 958.132 936.112 953.013 927.192 948.685 C 913.157 941.876 898.695 935.14 884.36 929.001 C 852.382 915.309 697.573 857.32 685.327 844.424 C 676.183 834.794 678.092 819.1 678.255 806.951 C 659.739 806.628 577.666 808.893 567.218 804.543 C 553.253 789.413 602.44 729.677 596.905 707.553 C 592.335 689.289 557.922 630.295 565.536 615.96 C 572.174 609.583 601.473 611.668 611.387 611.696 L 678.624 611.834 C 677.405 586.979 687.944 582.294 708.686 574.121 C 715.922 571.27 723.572 567.99 730.8 565.029 C 759.571 553.426 788.278 541.663 816.918 529.74 C 807.546 525.55 803.276 523.143 796.437 515.502 C 788.922 516.887 771.883 515.117 763.841 514.838 C 758.447 514.652 751.511 509.723 754.456 503.404 C 759.008 493.636 770.305 500.466 779.803 495.679 C 758.253 479.037 766.379 462.475 788.894 454.17 C 790.775 453.175 794.938 451.906 797.127 451.159 C 800.413 449.05 821.123 446.936 825.943 447.053 L 834.75 447.008 C 836.603 447.081 856.522 452.653 858.888 453.488 L 863.527 455.345 C 878.867 463.337 891.868 479.66 872.409 492.548 L 869.189 495.291 C 875.361 498.47 885.115 497.288 892.268 498.25 L 898.175 497.001 C 898.255 489.572 898.441 483.032 898.925 475.62 C 878.437 466.399 874.953 445.594 900.923 441.957 C 901.037 435.079 901.06 428.087 901.533 421.233 L 902.217 424.172 C 906.444 425.413 923.352 420.231 930.347 419.566 C 934.903 417.706 943.09 417.001 948.09 417.199 z"/>
<path transform="translate(0,0)" fill="rgb(67,33,15)" d="M 1242.11 689.872 C 1245.82 691.159 1255.46 694.322 1258.28 696.387 C 1262.65 699.594 1265.53 702.883 1270.55 705.946 C 1270.65 705.741 1270.75 705.536 1270.85 705.331 C 1271.37 705.068 1271.39 699.801 1271.44 699.843 C 1263.65 692.728 1250.95 690.104 1246.66 678.536 C 1245.3 674.876 1246.25 671.105 1248.02 667.846 C 1258.17 666.685 1269.92 682.616 1273.13 682.949 C 1273.83 680.569 1274.47 678.559 1275.32 676.229 C 1276.38 677.712 1276.95 683.438 1277.27 685.592 C 1282.05 679.132 1296.3 664.67 1304.56 672.054 C 1306.7 678.692 1298.86 687.55 1294.29 691.744 L 1296.86 694.895 C 1300.47 693.591 1303.16 692.059 1306.64 693.124 C 1313.44 701.532 1299.06 715.588 1292.58 720.4 C 1287.6 724.094 1282.73 723.134 1279.34 727.011 C 1278.8 730.612 1278.76 731.181 1279.32 734.77 C 1281.99 733.958 1285.95 728.79 1289.89 726.499 C 1297.29 722.191 1302.92 720.619 1310.96 718.428 C 1309.7 731.882 1308.91 736.448 1299 746.514 C 1290.85 754.799 1275.51 751.103 1279.7 763.43 C 1295.26 755.128 1290.87 752.423 1313.29 747.254 C 1310.46 771.454 1303.95 777.949 1281.4 786.567 C 1282.04 792.937 1282.66 802.318 1284.42 808.226 C 1286.2 828.685 1288.44 843.086 1266.03 852.039 C 1252.44 860.324 1227.87 869.387 1212.82 875.279 C 1194.43 882.672 1176.11 890.207 1157.84 897.885 C 1129.09 910.153 1100.42 924.767 1071.08 935.957 C 1050.03 943.984 1013.89 965.605 991.71 965.311 C 989.133 965.853 986.527 966.338 983.888 966.396 C 973.93 966.611 963.776 964.776 954.41 961.45 C 945.066 958.132 936.112 953.013 927.192 948.685 C 913.157 941.876 898.695 935.14 884.36 929.001 C 852.382 915.309 697.573 857.32 685.327 844.424 C 676.183 834.794 678.092 819.1 678.255 806.951 C 686.596 806.95 697.642 806.609 705.755 807.004 L 722.276 806.979 L 1069.8 806.898 L 1184.57 806.899 C 1201.34 806.9 1227.39 806.099 1243.15 807.107 C 1249.61 806.749 1256.06 807.085 1262.52 807.307 C 1263.38 803.377 1264.59 791.012 1265.33 786.085 C 1244.15 778.827 1235.8 767.952 1235.05 745.919 C 1245.7 748.156 1257.31 752.985 1264.4 761.235 C 1265.4 762.397 1265.8 762.643 1267.32 763.044 L 1268.24 760.689 C 1267.01 752.149 1231.57 740.87 1239.19 720.324 C 1247.06 714.09 1264.22 729.644 1269.35 735.654 C 1270.88 719.264 1261.37 724.544 1251.32 715.483 C 1243.41 708.353 1242.5 700.025 1242.11 689.872 z"/>
<path transform="translate(0,0)" fill="rgb(233,229,227)" d="M 1243.15 807.107 C 1249.61 806.749 1256.06 807.085 1262.52 807.307 C 1261.86 812.521 1262.01 821.508 1261.95 827.017 C 1238.46 836.217 1214.13 846.569 1190.72 856.168 C 1191.54 848.304 1192.02 844.345 1191.25 836.403 C 1204.92 831.088 1226.47 824.887 1237.54 815.985 C 1239.54 814.375 1241.95 809.523 1243.15 807.107 z"/>
<path transform="translate(0,0)" fill="rgb(233,229,227)" d="M 705.755 807.004 L 722.276 806.979 C 722.507 807.522 722.743 808.063 722.986 808.602 C 729.753 823.602 758.548 830.576 775.464 837.025 C 774.233 844.008 774.174 847.553 774.051 854.52 L 705.661 826.142 L 705.755 807.004 z"/>
<path transform="translate(0,0)" fill="rgb(233,229,227)" d="M 991.71 965.311 C 1007.2 956.342 1260.69 852.336 1266.03 852.039 C 1252.44 860.324 1227.87 869.387 1212.82 875.279 C 1194.43 882.672 1176.11 890.207 1157.84 897.885 C 1129.09 910.153 1100.42 924.767 1071.08 935.957 C 1050.03 943.984 1013.89 965.605 991.71 965.311 z"/>
<path transform="translate(0,0)" fill="rgb(237,162,2)" d="M 1294.29 691.744 L 1296.86 694.895 C 1296.46 695.063 1296.06 695.23 1295.66 695.398 L 1294.97 695.716 C 1287.33 699.173 1282.28 706.06 1278.29 707.083 C 1276.06 696.624 1286.14 695.811 1294.29 691.744 z"/>
<path transform="translate(0,0)" fill="rgb(233,229,227)" d="M 823.066 873.099 L 823.93 872.869 C 834.263 879.502 837.538 879.932 848.453 874.789 C 857.304 870.619 856.857 882.384 872.932 874.819 L 942.824 901.931 C 953.267 905.982 972.65 914.117 982.945 916.325 C 993.497 913.674 1010.84 906.384 1021.33 902.309 L 1085.47 877.503 C 1093.09 886.36 1096.29 888.226 1107.62 889.302 L 1106.79 890.668 C 1066.45 905.046 1023.42 925.602 982.516 940.866 C 949.899 928.463 915.342 912.735 882.597 899.614 C 868.221 893.853 835.35 881.161 823.577 874.99 L 823.066 873.099 z"/>
<path transform="translate(0,0)" fill="rgb(250,250,250)" d="M 1001.14 824.574 C 1018.14 822.831 1035.65 821.217 1025.23 844.616 C 1041.67 860.264 1031.74 871.506 1012.4 871.538 C 993.908 871.569 1001.5 841.095 1000.35 827.182 C 996.087 827.69 991.271 828.056 988.58 831.667 C 989.574 836.302 994.396 836.18 996.093 841.257 L 994.847 842.707 C 991.545 843.688 991.063 843.868 987.726 843.131 C 986.084 841.742 984.623 840.713 984.812 838.379 C 985.695 827.482 993.178 825.328 1001.14 824.574 z"/>
<path transform="translate(0,0)" fill="rgb(67,33,15)" d="M 1012.59 825.43 C 1025.81 829.663 1019.87 838.219 1013.96 845.048 C 1016.62 851.465 1024 843.71 1022.2 862.721 C 1019.78 866.691 1017.9 869.531 1013.29 867.811 C 1009.42 862.155 1009.85 831.019 1012.59 825.43 z"/>
<path transform="translate(0,0)" fill="rgb(250,250,250)" d="M 1081.35 857.3 C 1081.13 861.871 1081.56 867.135 1079.25 870.611 C 1076.1 872.143 1077.38 872.06 1074.24 871.451 C 1066.6 863.037 1075.13 829.318 1068.5 824.885 C 1070.89 821.343 1076.2 821.022 1079.51 823.685 C 1082.08 829.421 1081.14 839.398 1080.98 845.992 C 1085.55 841.494 1089.76 836.218 1096.6 839.889 C 1101.37 846.861 1097.1 851.675 1091.49 856.405 C 1098.98 869.672 1099.78 873.027 1113.32 880.894 C 1111.37 882.478 1106.52 882.948 1104.09 882.587 C 1091.6 880.738 1087.4 866.091 1081.69 857.09 L 1081.35 857.3 z"/>
<path transform="translate(0,0)" fill="rgb(67,33,15)" d="M 1081.35 857.3 C 1080.49 851.047 1081.34 846.336 1087.69 843.775 L 1089.33 844.888 C 1089.66 850.64 1085.58 853.365 1081.69 857.09 L 1081.35 857.3 z"/>
<path transform="translate(0,0)" fill="rgb(250,250,250)" d="M 798.031 824.195 C 805.974 823.657 816.275 823.252 815.531 834.059 C 813.287 836.82 814.483 836.139 811.093 836.689 C 806.374 833.531 811.348 828.875 803.477 826.445 C 791.305 828.583 787.019 859.843 797.447 866.432 C 807.061 872.507 808.327 861.885 806.746 855.015 C 806.059 852.03 804.218 851.852 801.661 850.773 L 801.474 849.529 C 804.387 848.23 816.172 847.802 818.289 850.41 C 815.438 856.801 815.57 858.164 815.997 865.25 C 816.354 878.11 811.741 886.453 797.689 887.17 C 794.035 887.356 791.34 886.5 788.633 883.996 L 788.788 882.125 C 793.404 879.538 792.433 883.957 800.455 884.383 C 804.967 882.325 807.984 876.232 806.167 871.823 C 796.96 870.377 785.437 869.939 782.135 859.875 C 776.951 844.08 783.269 830.283 798.031 824.195 z"/>
<path transform="translate(0,0)" fill="rgb(250,250,250)" d="M 881.308 821.984 C 890.955 821.927 896.535 824.561 900.636 833.606 C 907.636 849.048 903.864 879.272 879.907 869.012 C 875.604 864.292 875.076 860.895 873.57 854.842 C 874.021 853.023 874.508 851.214 875.032 849.415 C 877.892 839.9 883.393 840.795 891.445 836.492 L 891.962 834.34 C 888.67 826.902 886.444 825.846 878.688 825.505 L 877.422 825.455 L 877.09 824.676 L 881.308 821.984 z"/>
<path transform="translate(0,0)" fill="rgb(67,33,15)" d="M 886.776 841.317 L 890.034 841.901 C 896.903 847.55 893.434 861.62 890.882 868.88 C 880.619 865.818 883.367 848.617 886.776 841.317 z"/>
<path transform="translate(0,0)" fill="rgb(250,250,250)" d="M 1135.41 837.825 C 1142.18 838.535 1139.67 837.694 1145.34 842.491 C 1147.89 840.525 1149.32 839.356 1152.18 837.767 C 1158.67 839.727 1160.16 837.462 1164.19 839.173 C 1170.88 842.01 1174.9 858.65 1177.3 866.028 C 1180.02 856.914 1180.34 841.986 1182.82 838.334 L 1184.12 838.882 C 1186.38 843.721 1184.01 857.085 1181.9 862.314 C 1177.29 873.708 1172.68 879.651 1161.83 884.827 C 1158.04 885.045 1155.03 885.549 1151.59 883.881 L 1151.02 882.197 C 1154.61 876.674 1159.13 884.464 1167.67 879.755 C 1168.79 878.025 1169.88 876.75 1169.39 874.408 C 1168.03 867.863 1161.89 846.765 1157.42 843.155 L 1155.59 844.806 C 1134.14 844.08 1151.32 859.937 1142.35 870.817 C 1139.45 871.422 1139.36 871.403 1136.46 870.586 C 1133.58 865.85 1136.14 847.412 1133.07 840.245 L 1135.41 837.825 z"/>
<path transform="translate(0,0)" fill="rgb(250,250,250)" d="M 835.118 838.005 C 841.824 837.811 847.422 839.726 850.846 845.879 C 853.126 850.059 853.626 854.981 852.233 859.534 C 850.278 866.035 847.636 868.141 842.204 871.138 C 819.975 872.071 816.833 846.963 835.118 838.005 z"/>
<path transform="translate(0,0)" fill="rgb(67,33,15)" d="M 837.261 840.348 C 846.547 844.992 843.177 861.858 839.363 869.306 C 830.259 863.799 831.956 847.901 837.261 840.348 z"/>
<path transform="translate(0,0)" fill="rgb(250,250,250)" d="M 1043.43 851.178 C 1039.89 848.215 1040.4 849.448 1039.29 845.89 C 1041.11 836.042 1055.8 834.259 1061.11 844.096 C 1065.06 851.401 1061.75 863.316 1063.72 866.83 L 1066.17 867.621 C 1064.64 870.14 1064.43 870.144 1061.7 871.515 C 1058.27 871.658 1056.74 870.177 1053.78 868.272 C 1047.29 869.145 1044.09 875.693 1037.37 867.555 C 1035.62 860.65 1037.81 856.878 1043.55 853.397 L 1043.43 851.178 z"/>
<path transform="translate(0,0)" fill="rgb(67,33,15)" d="M 1043.43 851.178 C 1046.28 847.234 1046.1 847.168 1044.16 842.272 C 1047.33 840.358 1045.88 840.695 1049.63 841.062 C 1052.67 843.662 1051.9 842.353 1052.84 845.918 C 1050.92 851.73 1049.21 851.571 1043.55 853.397 L 1043.43 851.178 z"/>
<path transform="translate(0,0)" fill="rgb(67,33,15)" d="M 1049.49 852.203 C 1056.14 854.003 1053.86 863.645 1050.32 867.7 C 1042.84 864.452 1045.86 857.235 1049.49 852.203 z"/>
<path transform="translate(0,0)" fill="rgb(250,250,250)" d="M 940.405 837.711 L 945.564 838.369 C 952.949 846.418 954.967 835.889 963.567 839.054 C 968.312 843.312 968.807 861.432 965.039 866.682 C 962.627 870.042 957.684 879.216 952.87 875.705 L 953.006 873.46 C 956.426 870.31 956.684 869.828 957.469 865.243 C 957.833 858.923 958.923 850.528 955.941 845.021 C 953.287 843.447 954.681 843.69 951.609 844.341 C 944.111 853.288 955.214 867.747 944.901 871.47 C 936.465 869.716 939.352 850.88 939.63 843.547 C 938.794 842.323 938.042 841.495 936.89 840.561 L 940.405 837.711 z"/>
<path transform="translate(0,0)" fill="rgb(250,250,250)" d="M 921.299 837.952 C 925.933 838.066 932.304 838.442 933.014 843.781 C 929.544 850.732 918.923 853.305 918.465 861.305 C 925.049 871.506 929.638 863.959 934.171 866.191 C 911.336 883.516 893.787 850.053 921.299 837.952 z"/>
<path transform="translate(0,0)" fill="rgb(67,33,15)" d="M 920.993 840.384 C 924.009 842.082 924.535 843.514 925.206 846.538 C 924.205 850.09 922.72 850.764 919.785 853.096 L 917.583 852.258 C 916.27 847.706 918.792 844.241 920.993 840.384 z"/>
<path transform="translate(0,0)" fill="rgb(250,250,250)" d="M 1116.28 838.018 C 1121.12 838.201 1124.74 837.961 1127.91 842.175 C 1128.93 850.227 1117.02 851.501 1113.01 859.025 C 1113.11 863.994 1118.17 866.163 1122.58 867.038 C 1125.25 866.247 1126.76 865.586 1129.53 866.082 C 1107.7 883.743 1088.94 850.807 1116.28 838.018 z"/>
<path transform="translate(0,0)" fill="rgb(67,33,15)" d="M 1116.26 840.394 C 1119.43 842.248 1119.47 842.856 1120.59 845.721 C 1120.18 849.322 1119.05 850.126 1116.61 852.693 C 1108.63 852.889 1114.2 843.78 1116.26 840.394 z"/>
<path transform="translate(0,0)" fill="rgb(250,250,250)" d="M 857.946 822.089 C 861.745 821.917 863.747 821.398 866.916 823.369 C 869.46 827.255 869.307 868.134 866.377 872.061 C 864.933 871.838 859.897 871.217 859.405 869.585 C 856.188 858.913 862.271 832.89 856.359 824.577 L 857.946 822.089 z"/>
<path transform="translate(0,0)" fill="rgb(233,229,227)" d="M 1151.66 852.235 C 1153.19 852.665 1153.87 853.067 1155.29 853.738 C 1157.61 857.503 1162.49 865.673 1158.66 869.335 C 1155.35 870.744 1155.33 871.392 1152.17 870.818 C 1149.64 866.191 1151.19 858.013 1151.66 852.235 z"/>
<path transform="translate(0,0)" fill="rgb(233,229,227)" d="M 1130.1 874.261 C 1132.58 875.464 1133.54 875.676 1135.19 877.766 C 1133.08 880.568 1131.08 880.543 1127.28 881.96 C 1124.12 882.966 1125.3 883.097 1122.65 881.954 L 1122.4 879.585 C 1125.17 875.432 1124.77 876.545 1130.1 874.261 z"/>
<path transform="translate(0,0)" fill="rgb(247,192,133)" d="M 948.09 417.199 C 953.36 414.101 989.853 415.668 997.021 417.932 L 998.399 417.737 L 1006.82 418.325 L 1013.09 419.321 L 1016.22 422.304 L 1025.4 426.449 C 1039.07 434.488 1034.1 428.407 1041.96 425.946 C 1042 431.512 1041.13 437.518 1044.25 441.725 C 1046.55 442.214 1047.14 442.297 1049.49 442.43 C 1060.35 447.591 1064.96 456.773 1057.9 467.367 C 1054.36 471.859 1050.65 473.091 1045.31 475.178 C 1045.59 479.511 1045.98 484.11 1045.9 488.426 C 1046.09 497.872 1046.57 507.308 1047.35 516.724 L 1047.86 517.768 C 1048.17 525.072 1048.57 532.372 1049.05 539.666 C 1049.03 541.729 1048.91 544.449 1049.06 546.456 L 1045.96 551.06 C 1040.47 554.896 1036.49 557.256 1029.93 559.05 L 1025.16 560.729 C 1007.47 577.9 987.243 568.988 972.421 553.999 C 951.916 574.847 938 574.507 915.392 557.538 C 910.562 556.896 903.381 553.795 899.062 551.446 C 898.466 550.776 895.832 548.58 895.008 547.865 C 895.298 540.837 895.889 533.478 896.358 526.431 C 896.76 524.513 896.931 520.127 897.08 517.976 L 897.134 510.141 L 895.15 509.702 C 895.306 505.278 893.852 502.383 892.268 498.25 L 898.175 497.001 C 898.255 489.572 898.441 483.032 898.925 475.62 C 878.437 466.399 874.953 445.594 900.923 441.957 C 901.037 435.079 901.06 428.087 901.533 421.233 L 902.217 424.172 C 906.444 425.413 923.352 420.231 930.347 419.566 C 934.903 417.706 943.09 417.001 948.09 417.199 z"/>
<path transform="translate(0,0)" fill="rgb(237,162,2)" d="M 1047.35 516.724 L 1047.86 517.768 C 1048.17 525.072 1048.57 532.372 1049.05 539.666 C 1049.03 541.729 1048.91 544.449 1049.06 546.456 L 1045.96 551.06 C 1040.47 554.896 1036.49 557.256 1029.93 559.05 L 1025.16 560.729 C 1007.47 577.9 987.243 568.988 972.421 553.999 C 951.916 574.847 938 574.507 915.392 557.538 C 910.562 556.896 903.381 553.795 899.062 551.446 C 898.466 550.776 895.832 548.58 895.008 547.865 C 895.298 540.837 895.889 533.478 896.358 526.431 C 896.76 524.513 896.931 520.127 897.08 517.976 L 899.721 517.501 C 908.888 522.684 915.532 525.868 925.469 529.566 C 927.972 530.497 939.169 534.541 941.065 535.554 C 943.073 535.987 948.092 536.862 949.61 537.728 C 952.514 540.714 954.046 540.912 957.929 542.073 C 961.869 546.206 959.361 552.823 965.064 552.999 L 965.626 551.557 C 964.22 549.412 963.371 548.128 961.733 546.166 C 961.939 531.896 969.091 531.483 980.789 534.406 L 981.936 536.255 C 986.882 540.363 996.032 537.103 1001.76 535.598 C 1018.01 530.623 1029.79 524.185 1045.08 518.061 L 1047.35 516.724 z"/>
<path transform="translate(0,0)" fill="rgb(251,175,6)" d="M 1047.35 516.724 L 1047.86 517.768 C 1048.17 525.072 1048.57 532.372 1049.05 539.666 C 1049.03 541.729 1048.91 544.449 1049.06 546.456 L 1045.96 551.06 C 1040.47 554.896 1036.49 557.256 1029.93 559.05 L 1028.29 556.995 L 1028.36 556.074 C 1028.94 547.782 1027.22 542.265 1021.81 536.156 L 1021.08 536.926 L 1021.03 537.714 C 1020.75 541.508 1021.13 542.139 1018.94 545.47 C 1012.91 550.282 998.31 545.085 997.914 539.007 L 1001.04 537.665 L 1001.76 535.598 C 1018.01 530.623 1029.79 524.185 1045.08 518.061 L 1047.35 516.724 z"/>
<path transform="translate(0,0)" fill="rgb(251,175,6)" d="M 897.08 517.976 L 899.721 517.501 C 908.888 522.684 915.532 525.868 925.469 529.566 C 927.972 530.497 939.169 534.541 941.065 535.554 C 943.654 537.525 944.484 538.194 947.757 538.412 L 948.717 540.018 C 944.849 543.649 937.622 546.776 932.484 548.146 C 926.201 547.282 925.008 542.204 922.339 537.175 C 919.72 538.372 920.475 538.206 918.794 541.445 C 915.164 547.34 915.304 549.872 915.819 556.774 L 915.392 557.538 C 910.562 556.896 903.381 553.795 899.062 551.446 C 898.466 550.776 895.832 548.58 895.008 547.865 C 895.298 540.837 895.889 533.478 896.358 526.431 C 896.76 524.513 896.931 520.127 897.08 517.976 z"/>
<path transform="translate(0,0)" fill="rgb(251,175,6)" d="M 961.733 546.166 C 961.939 531.896 969.091 531.483 980.789 534.406 L 981.936 536.255 C 981.877 539.992 982.105 544.342 980.789 547.766 L 979.536 548.684 C 976.694 544.982 975.511 539.209 973.322 537.751 C 967.465 538.077 965.183 542.846 961.733 546.166 z"/>
<path transform="translate(0,0)" fill="rgb(211,138,25)" d="M 1021.81 536.156 C 1027.22 542.265 1028.94 547.782 1028.36 556.074 L 1028.29 556.995 L 1029.93 559.05 L 1025.16 560.729 C 1024.96 551.755 1027.13 553.889 1023.88 542.462 L 1023.32 542.6 C 1021.22 539.533 1021.85 540.767 1021.81 536.156 z"/>
<path transform="translate(0,0)" fill="rgb(211,138,25)" d="M 918.794 541.445 C 919.112 542.571 917.302 554.165 917.002 556.539 L 915.819 556.774 C 915.304 549.872 915.164 547.34 918.794 541.445 z"/>
<path transform="translate(0,0)" fill="rgb(112,73,21)" d="M 930.347 419.566 C 934.903 417.706 943.09 417.001 948.09 417.199 L 944.773 421.996 C 948.111 424.075 949.8 424.952 952.534 427.909 L 951.012 430.887 C 949.591 431.046 948.693 431.202 947.248 431.16 L 945.989 430.831 C 935.403 431.428 911.078 429.361 909.467 443.106 C 905.566 444.267 904.99 444.456 900.885 444.186 L 900.923 441.957 C 901.037 435.079 901.06 428.087 901.533 421.233 L 902.217 424.172 C 906.444 425.413 923.352 420.231 930.347 419.566 z"/>
<path transform="translate(0,0)" fill="rgb(97,58,8)" d="M 930.347 419.566 C 934.903 417.706 943.09 417.001 948.09 417.199 L 944.773 421.996 C 948.111 424.075 949.8 424.952 952.534 427.909 L 951.012 430.887 C 949.591 431.046 948.693 431.202 947.248 431.16 L 945.989 430.831 C 940.841 429.271 935.736 431.92 927.888 427.461 L 927.669 428.151 C 923.833 430.348 918.202 429.866 915.537 426.245 C 919.339 421.845 923.618 425.749 930.347 419.566 z"/>
<path transform="translate(0,0)" fill="url(#Gradient2)" d="M 927.888 427.461 L 926.415 426.169 C 929.307 424.007 937.245 425.427 944.773 421.996 C 948.111 424.075 949.8 424.952 952.534 427.909 L 951.012 430.887 C 949.591 431.046 948.693 431.202 947.248 431.16 L 945.989 430.831 C 940.841 429.271 935.736 431.92 927.888 427.461 z"/>
<path transform="translate(0,0)" fill="rgb(97,58,8)" d="M 1025.4 426.449 C 1039.07 434.488 1034.1 428.407 1041.96 425.946 C 1042 431.512 1041.13 437.518 1044.25 441.725 C 1046.55 442.214 1047.14 442.297 1049.49 442.43 C 1038.43 443.202 1041.52 445.843 1029.02 441.966 C 1029.51 444.514 1029.7 447.322 1029.95 449.923 L 1029.12 450.822 C 1018.82 440.082 1014.47 437.516 999.844 433.37 L 1000.2 430.481 C 1007.52 430.994 1015.01 431.173 1022.05 433.119 L 1018.85 430.671 C 1019.65 428.827 1019.36 429.345 1018.62 426.858 C 1020.88 426.767 1023.14 426.631 1025.4 426.449 z"/>
<path transform="translate(0,0)" fill="rgb(241,176,117)" d="M 898.925 475.62 C 878.437 466.399 874.953 445.594 900.923 441.957 L 900.885 444.186 C 881.876 444.595 875.712 469.834 903.179 470.192 C 902.867 480.462 901.765 508.026 899.721 517.501 L 897.08 517.976 L 897.134 510.141 L 895.15 509.702 C 895.306 505.278 893.852 502.383 892.268 498.25 L 898.175 497.001 C 898.255 489.572 898.441 483.032 898.925 475.62 z"/>
<path transform="translate(0,0)" fill="rgb(67,33,15)" d="M 892.268 498.25 L 898.175 497.001 C 897.95 501.142 897.818 506.133 897.134 510.141 L 895.15 509.702 C 895.306 505.278 893.852 502.383 892.268 498.25 z"/>
<path transform="translate(0,0)" fill="rgb(112,73,21)" d="M 998.399 417.737 L 1006.82 418.325 L 1013.09 419.321 L 1016.22 422.304 L 1025.4 426.449 C 1023.14 426.631 1020.88 426.767 1018.62 426.858 C 1019.36 429.345 1019.65 428.827 1018.85 430.671 L 1022.05 433.119 C 1015.01 431.173 1007.52 430.994 1000.2 430.481 C 995.33 430.62 990.337 431.504 985.502 432.239 C 989.235 429.017 994.823 424.018 999.478 422.732 C 997.962 420.03 998.382 421.081 998.399 417.737 z"/>
<path transform="translate(0,0)" fill="rgb(97,58,8)" d="M 1006.82 418.325 L 1013.09 419.321 L 1016.22 422.304 C 1016.04 423.103 1015.59 424.588 1015.7 425.294 L 1005.9 424.512 C 1007.38 422.28 1006.98 421.173 1006.82 418.325 z"/>
<path transform="translate(0,0)" fill="rgb(67,33,15)" d="M 998.399 417.737 L 1006.82 418.325 C 1006.98 421.173 1007.38 422.28 1005.9 424.512 C 1003.72 425.199 1002.88 425.439 1000.61 425.05 L 1001.12 425.66 L 999.111 425.603 L 999.968 423.94 L 999.478 422.732 C 997.962 420.03 998.382 421.081 998.399 417.737 z"/>
<path transform="translate(0,0)" fill="rgb(67,33,15)" d="M 1016.22 422.304 L 1025.4 426.449 C 1023.14 426.631 1020.88 426.767 1018.62 426.858 C 1019.36 429.345 1019.65 428.827 1018.85 430.671 C 1016.79 430.194 1014.37 429.429 1012.3 428.839 L 1011.98 427.451 L 1015.7 425.294 C 1015.59 424.588 1016.04 423.103 1016.22 422.304 z"/>
<path transform="translate(0,0)" fill="rgb(97,58,8)" d="M 945.989 430.831 L 947.248 431.16 L 946.958 433.306 C 931.053 433.095 922.005 439.847 910.542 450.409 C 910.219 447.97 909.861 445.535 909.467 443.106 C 911.078 429.361 935.403 431.428 945.989 430.831 z"/>
<path transform="translate(0,0)" fill="rgb(241,176,117)" d="M 1040.81 470.469 C 1048.91 469.961 1050.11 470.094 1057.9 467.367 C 1054.36 471.859 1050.65 473.091 1045.31 475.178 C 1045.59 479.511 1045.98 484.11 1045.9 488.426 C 1046.09 497.872 1046.57 507.308 1047.35 516.724 L 1045.08 518.061 C 1043.39 512.136 1041.36 478.069 1040.81 470.469 z"/>
<path transform="translate(0,0)" fill="rgb(211,138,25)" d="M 949.61 537.728 C 951.491 537.936 956.603 538.595 957.968 537.975 C 967.617 533.587 970.193 526.097 980.789 534.406 C 969.091 531.483 961.939 531.896 961.733 546.166 C 963.371 548.128 964.22 549.412 965.626 551.557 L 965.064 552.999 C 959.361 552.823 961.869 546.206 957.929 542.073 C 954.046 540.912 952.514 540.714 949.61 537.728 z"/>
<path transform="translate(0,0)" fill="rgb(97,58,8)" d="M 997.021 417.932 L 998.399 417.737 C 998.382 421.081 997.962 420.03 999.478 422.732 C 994.823 424.018 989.235 429.017 985.502 432.239 C 990.337 431.504 995.33 430.62 1000.2 430.481 L 999.844 433.37 C 992.132 432.766 988.09 434.069 980.741 435.913 C 983.598 431.527 985.813 428.714 989.875 425.32 C 993.275 422.479 995.901 422.042 997.021 417.932 z"/>
<path transform="translate(0,0)" fill="rgb(97,58,8)" d="M 947.248 431.16 C 948.693 431.202 949.591 431.046 951.012 430.887 L 952.534 427.909 C 954.411 430.563 955.803 431.539 955.877 434.356 C 953.266 435.263 949.857 433.999 946.958 433.306 L 947.248 431.16 z"/>
<path transform="translate(0,0)" fill="rgb(112,73,21)" d="M 961.211 482.151 C 972.545 490.802 973.181 485.81 983.21 481.382 C 994.983 476.183 1008.34 494.289 1021.23 488.834 C 1026.41 482.658 1021.91 481.17 1023.36 476.684 C 1024.54 477.045 1024.92 477.211 1025.69 478.21 C 1041.78 498.994 1022.34 517.188 999.973 514.819 C 986.237 513.365 979.21 506.339 970.963 496.38 C 964.345 504.977 957.391 511.449 946.343 514.147 C 933.174 517.362 913.124 511.238 909.948 496.352 C 908.423 489.205 912.999 482.985 916.927 477.4 L 918.222 477.382 C 917.994 482.578 918.623 488.762 925.371 489.827 C 939.596 492.071 942.023 476.884 957.767 480.987 L 961.211 482.151 z"/>
<path transform="translate(0,0)" fill="rgb(67,33,15)" d="M 995.901 443.007 C 1010.94 442.621 1017.8 458.381 1010.92 466.31 C 1004.61 464.111 1011.1 457.207 1002.73 447.92 C 1001.36 447.967 999.373 448.248 997.952 448.401 C 991.894 452.054 993.569 457.74 991.274 465.356 L 989.82 465.8 L 988.061 464.723 C 984.305 458.235 989.918 447.102 995.901 443.007 z"/>
<path transform="translate(0,0)" fill="rgb(67,33,15)" d="M 938.775 443.011 C 954.259 442.711 961.022 458.206 952.872 466.577 C 950.266 464.933 952.4 457.584 946.882 448.999 C 943.837 448.024 943.395 447.847 940.31 448.577 C 932.326 455.081 938.354 462.871 933.558 466.122 L 930.992 464.774 C 927.111 457.9 932.903 447.459 938.775 443.011 z"/>
<path transform="translate(0,0)" fill="rgb(97,58,8)" d="M 957.767 480.987 C 957.878 476.213 958.25 466.726 964.381 466.341 C 961.521 471.113 959.498 471.703 960.333 477.886 C 960.519 479.327 960.812 480.753 961.211 482.151 L 957.767 480.987 z"/>
<path transform="translate(0,0)" fill="rgb(155,153,155)" d="M 797.127 451.159 C 800.413 449.05 821.123 446.936 825.943 447.053 L 834.75 447.008 C 836.603 447.081 856.522 452.653 858.888 453.488 L 863.527 455.345 C 878.867 463.337 891.868 479.66 872.409 492.548 L 869.189 495.291 C 875.361 498.47 885.115 497.288 892.268 498.25 C 893.852 502.383 895.306 505.278 895.15 509.702 L 897.134 510.141 L 897.08 517.976 C 896.931 520.127 896.76 524.513 896.358 526.431 C 895.889 533.478 895.298 540.837 895.008 547.865 C 895.832 548.58 898.466 550.776 899.062 551.446 C 895.47 571.109 892.874 592.2 890.485 612.116 L 887.765 611.805 C 887.955 604.316 888.784 599.083 890.014 591.833 C 869.645 585.985 859.712 582.978 844.077 567.862 C 839.979 562.375 837.379 558.009 833.909 552.185 C 833.46 549.805 833.539 548.72 831.727 547.155 L 828.008 547.861 C 824.317 545.189 823.633 535.054 819.472 529.467 L 816.918 529.74 C 807.546 525.55 803.276 523.143 796.437 515.502 C 788.922 516.887 771.883 515.117 763.841 514.838 C 758.447 514.652 751.511 509.723 754.456 503.404 C 759.008 493.636 770.305 500.466 779.803 495.679 C 758.253 479.037 766.379 462.475 788.894 454.17 C 790.775 453.175 794.938 451.906 797.127 451.159 z"/>
<path transform="translate(0,0)" fill="url(#Gradient1)" d="M 797.127 451.159 C 800.413 449.05 821.123 446.936 825.943 447.053 L 834.75 447.008 C 836.603 447.081 856.522 452.653 858.888 453.488 L 863.527 455.345 C 878.867 463.337 891.868 479.66 872.409 492.548 L 869.189 495.291 C 865.269 496.366 859.882 498.666 856.487 500.903 C 828.378 506.734 820.685 506.589 792.519 500.914 L 782.028 495.582 L 779.803 495.679 C 758.253 479.037 766.379 462.475 788.894 454.17 C 790.775 453.175 794.938 451.906 797.127 451.159 z"/>
<path transform="translate(0,0)" fill="rgb(211,138,25)" d="M 782.028 495.582 C 785.571 493.941 795.907 497.193 800.865 497.875 C 816.547 500.033 831.972 499.95 847.673 498.197 C 855.18 497.359 867.469 491.162 872.409 492.548 L 869.189 495.291 C 865.269 496.366 859.882 498.666 856.487 500.903 C 828.378 506.734 820.685 506.589 792.519 500.914 L 782.028 495.582 z"/>
<path transform="translate(0,0)" fill="rgb(211,138,25)" d="M 825.943 447.053 L 834.75 447.008 C 832.339 452.312 823.202 461.366 820.175 467.175 C 817.954 471.436 817.536 475.012 815.527 479.699 C 809.689 471.685 820.08 453.449 825.943 447.053 z"/>
<path transform="translate(0,0)" fill="rgb(211,138,25)" d="M 858.888 453.488 L 863.527 455.345 C 852.555 466.606 848.533 468.113 836.85 482.269 C 841.91 469.818 847.097 460.617 858.888 453.488 z"/>
<path transform="translate(0,0)" fill="rgb(211,138,25)" d="M 788.894 454.17 C 790.775 453.175 794.938 451.906 797.127 451.159 C 792.057 463.356 792.257 467.546 791.284 480.545 C 789.532 470.209 788.574 464.833 788.894 454.17 z"/>
<path transform="translate(0,0)" fill="rgb(233,229,227)" d="M 856.487 500.903 C 865.735 501.34 886.167 498.211 891.738 505.403 C 891.214 509.173 891.822 507.759 889.391 510.743 C 874.931 516.489 787.232 509.943 764.997 512.22 C 761.373 512.591 759.368 511.411 757.619 508.372 C 757.534 504.763 757.121 506.168 759.311 503.109 C 765.98 499.478 783.768 500.93 792.519 500.914 C 820.685 506.589 828.378 506.734 856.487 500.903 z"/>
<path transform="translate(0,0)" fill="rgb(67,33,15)" d="M 895.15 509.702 L 897.134 510.141 L 897.08 517.976 C 896.931 520.127 896.76 524.513 896.358 526.431 C 886.681 530.399 873.507 536.278 863.878 539.54 L 862.679 537.524 C 865.351 532.331 860.304 520.853 858.366 515.258 C 870.146 514.682 887.649 519.125 895.15 509.702 z"/>
<path transform="translate(0,0)" fill="rgb(247,192,133)" d="M 796.437 515.502 C 805.202 514.811 847.813 514.07 855.041 516.059 C 849.437 518.096 821.676 526.68 819.472 529.467 L 816.918 529.74 C 807.546 525.55 803.276 523.143 796.437 515.502 z"/>
<path transform="translate(0,0)" fill="rgb(233,229,227)" d="M 863.878 539.54 C 873.507 536.278 886.681 530.399 896.358 526.431 C 895.889 533.478 895.298 540.837 895.008 547.865 C 892.454 548.562 888.895 550.185 886.36 551.245 C 876.329 549.083 870.988 546.807 863.878 539.54 z"/>
<path transform="translate(0,0)" fill="rgb(233,229,227)" d="M 855.589 537.95 C 858.624 537.236 861.61 541.389 863.726 543.532 C 872.049 551.961 884.188 554.443 895.655 554.223 C 893.757 565.347 892.376 577.129 890.889 588.358 L 879.333 585.126 C 857.153 577.778 843.536 567.736 835.142 545.464 C 841.405 542.91 849.137 540.304 855.589 537.95 z"/>
<path transform="translate(0,0)" fill="rgb(233,229,227)" d="M 854.366 519.107 L 855.133 519.212 C 857.471 521.454 859.74 529.371 860.968 532.871 C 850.602 536.255 842.26 539.944 831.216 543.104 L 829.696 543.461 C 827.278 540.634 825.291 533.765 823.95 529.924 C 831.711 527.878 846.323 522.044 854.366 519.107 z"/>
<path transform="translate(0,0)" fill="rgb(233,229,227)" d="M 1045.96 551.06 C 1048.18 561.973 1053.61 601.477 1054.31 612.194 C 1036.59 611.38 1014.51 611.958 996.524 611.959 L 890.485 612.116 C 892.874 592.2 895.47 571.109 899.062 551.446 C 903.381 553.795 910.562 556.896 915.392 557.538 C 938 574.507 951.916 574.847 972.421 553.999 C 987.243 568.988 1007.47 577.9 1025.16 560.729 L 1029.93 559.05 C 1036.49 557.256 1040.47 554.896 1045.96 551.06 z"/>
<path transform="translate(0,0)" fill="rgb(115,115,115)" d="M 983.076 587.519 C 987.399 586.031 992.111 588.323 993.609 592.642 C 995.107 596.962 992.826 601.679 988.51 603.188 C 984.18 604.701 979.444 602.411 977.941 598.077 C 976.437 593.743 978.738 589.012 983.076 587.519 z"/>
<path transform="translate(0,0)" fill="rgb(115,115,115)" d="M 949.241 588.569 C 951.895 587.181 955.093 587.343 957.593 588.991 C 960.094 590.64 961.502 593.515 961.272 596.502 C 961.042 599.488 959.21 602.114 956.487 603.36 C 952.426 605.218 947.625 603.503 945.66 599.493 C 943.696 595.483 945.284 590.638 949.241 588.569 z"/>
<path transform="translate(0,0)" fill="rgb(67,33,15)" d="M 1049.06 546.456 C 1048.91 544.449 1049.03 541.729 1049.05 539.666 C 1063.62 543.764 1086.13 553.298 1101.13 558.92 C 1145.68 576.056 1190.12 593.509 1234.43 611.277 C 1224.57 612.716 1211.99 612.022 1201.88 612.145 C 1155.8 612.704 1109.36 611.204 1063.32 612.146 L 1059.44 611.863 L 1057.53 612.123 L 1054.31 612.194 C 1053.61 601.477 1048.18 561.973 1045.96 551.06 L 1049.06 546.456 z"/>
<path transform="translate(0,0)" fill="rgb(155,153,155)" d="M 1049.06 546.456 C 1050 555.831 1060.65 562.401 1064.45 570.612 C 1069.83 582.237 1066.82 600.265 1063.32 612.146 L 1059.44 611.863 L 1057.53 612.123 L 1054.31 612.194 C 1053.61 601.477 1048.18 561.973 1045.96 551.06 L 1049.06 546.456 z"/>
<path transform="translate(0,0)" fill="rgb(233,229,227)" d="M 1049.65 555.855 C 1064.58 573.029 1068.84 590.091 1059.44 611.863 L 1057.53 612.123 C 1054.96 594.948 1053.59 571.756 1049.65 555.855 z"/>
<path transform="translate(0,0)" fill="rgb(67,33,15)" d="M 816.918 529.74 L 819.472 529.467 C 823.633 535.054 824.317 545.189 828.008 547.861 L 831.727 547.155 C 833.539 548.72 833.46 549.805 833.909 552.185 C 837.379 558.009 839.979 562.375 844.077 567.862 C 821.462 575.832 797.534 585.717 774.994 594.35 C 763.113 598.901 741.708 606.514 731.021 611.615 C 725.55 612.449 710.634 612.014 704.923 611.878 C 696.14 612.359 687.416 612.035 678.624 611.834 C 677.405 586.979 687.944 582.294 708.686 574.121 C 715.922 571.27 723.572 567.99 730.8 565.029 C 759.571 553.426 788.278 541.663 816.918 529.74 z"/>
<path transform="translate(0,0)" fill="rgb(233,229,227)" d="M 833.909 552.185 C 837.379 558.009 839.979 562.375 844.077 567.862 C 821.462 575.832 797.534 585.717 774.994 594.35 C 763.113 598.901 741.708 606.514 731.021 611.615 C 725.55 612.449 710.634 612.014 704.923 611.878 C 705.211 609.293 705.444 608.102 706.102 605.585 C 710.604 602.275 737.86 591.569 745.116 588.584 L 833.909 552.185 z"/>
<path transform="translate(0,0)" fill="rgb(67,33,15)" d="M 844.077 567.862 C 859.712 582.978 869.645 585.985 890.014 591.833 C 888.784 599.083 887.955 604.316 887.765 611.805 C 868.662 613.221 832.885 612.053 812.185 612.046 C 789.576 612.037 751.671 613.477 731.021 611.615 C 741.708 606.514 763.113 598.901 774.994 594.35 C 797.534 585.717 821.462 575.832 844.077 567.862 z"/>
<path transform="translate(0,0)" fill="rgb(67,33,15)" d="M 875.046 641.138 C 890.984 640.552 895.444 647.812 895.357 663.169 C 895.297 673.981 895.008 684.931 894.915 695.757 C 945.339 662.429 967.878 744.618 930.406 775.775 C 919.95 782.015 908.1 784.045 896.242 781.288 C 864.051 773.804 867.339 740.191 867.38 715.169 C 867.387 700.836 867.496 686.503 867.708 672.171 C 867.776 666.877 868.719 657.181 866.096 653.161 C 861.771 649.839 858.88 652.148 856.252 650.568 L 856.824 649.165 C 861.361 644.934 869.157 642.631 875.046 641.138 z"/>
<path transform="translate(0,0)" fill="rgb(251,175,6)" d="M 903.929 697.866 C 920.044 699.122 920.974 723.154 920.98 735.536 C 920.986 748.488 920.946 763.951 911.243 773.531 C 897.08 774.62 894.255 753.884 894.853 743.527 C 895.722 728.48 889.699 706.928 903.929 697.866 z"/>
<path transform="translate(0,0)" fill="rgb(67,33,15)" d="M 697.743 647.431 C 702.905 646.769 709.387 647.029 714.719 646.837 C 743.891 645.79 772.604 655.929 769.143 690.535 C 766.674 715.216 745.756 730.819 721.372 724.771 C 719.738 724.366 719.844 723.917 719.209 722.545 C 721.705 720.072 729.939 722.03 733.653 718.647 C 745.953 707.445 744.951 673.408 735.939 660.6 C 731.937 654.911 723.472 651.831 717.674 656.484 C 712.094 668.236 714.884 745.67 714.92 764.456 C 714.982 769.695 715.606 773.282 711.773 778.09 C 707.66 784.409 694.741 783.791 689.469 779.493 C 684.553 775.485 685.268 758.317 685.27 752.811 C 685.279 724.07 685.793 695.441 685.706 666.713 C 685.695 663.051 685.497 660.473 682.747 657.89 C 672.322 653.11 646.67 665.907 649.748 679.049 C 652.177 689.422 665.239 678.132 673.147 682.142 C 681.179 695.21 655.761 718.147 640.081 689.732 C 638.668 654.01 668.933 649.653 697.743 647.431 z"/>
<path transform="translate(0,0)" fill="rgb(67,33,15)" d="M 1044.75 688.081 C 1105.68 682.321 1110.44 766.717 1060.6 781.736 C 1050.71 782.626 1042.98 782.483 1033.97 777.996 C 1003.7 762.938 1002.83 709.856 1031.86 693.118 C 1035.92 690.782 1040.32 689.443 1044.75 688.081 z"/>
<path transform="translate(0,0)" fill="rgb(251,175,6)" d="M 1048.83 696.761 C 1066.97 696.297 1066.23 719.985 1066.28 733.181 C 1066.33 746.708 1066.31 763.117 1056.19 773.209 C 1037.13 773.365 1038.73 747.227 1038.56 733.315 C 1038.41 720.827 1039.43 705.858 1048.83 696.761 z"/>
<path transform="translate(0,0)" fill="rgb(67,33,15)" d="M 801.784 688.152 C 858.742 683.872 846.323 719.902 846.152 760.704 C 846.137 764.265 846.549 766.729 848.345 769.854 C 851.462 770.878 852.535 769.783 856.258 768.599 L 856.811 769.685 C 852.064 781.368 841.03 784.26 829.547 780.545 C 823.982 778.744 822.141 774.457 819.961 769.511 C 806.573 782.501 791.423 788.859 776.478 774.084 C 773.597 768.949 772.141 764.066 771.668 758.135 C 769.321 725.06 819.748 735.231 819.126 707.177 C 818.812 693.022 797.014 692.404 791.415 700.113 C 791.15 706.642 798.858 706.487 800.203 714.728 C 792.269 734.246 753.401 702.908 801.784 688.152 z"/>
<path transform="translate(0,0)" fill="rgb(251,175,6)" d="M 809.918 729.972 C 813.038 729.869 813.368 729.775 816.305 730.646 C 822.174 736.325 820.159 756.56 816.639 763.301 C 814.413 767.563 811.538 768.753 807.431 770.123 C 792.019 764.059 796.084 738.237 809.918 729.972 z"/>
<path transform="translate(0,0)" fill="rgb(67,33,15)" d="M 973.733 641.248 C 985.848 640.643 993.775 642.422 993.915 656.545 C 994.292 694.51 993.761 732.526 994.126 770.5 C 994.247 783.114 983.922 782.194 974.481 782.168 C 973.843 781.862 973.208 781.549 972.577 781.228 C 970.542 780.189 968.001 779.063 967.379 776.774 C 965.699 770.589 966.751 758.955 966.403 753.277 C 965.409 737.095 968.829 664.209 965.297 653.244 C 961.799 649.601 960.221 653.106 955.204 650.592 C 957.125 646.167 969.17 642.292 973.733 641.248 z"/>
<path transform="translate(0,0)" fill="rgb(67,33,15)" d="M 1169.43 688.099 C 1182.74 686.54 1211.8 690.417 1201.77 710.658 C 1199.1 713.485 1191.74 715.899 1188.61 712.935 C 1187.48 705.842 1193.99 701.538 1189.58 695.462 C 1186.13 694.04 1179.43 694.42 1176.72 697.138 C 1168.28 705.394 1179.23 715.889 1185.42 721.568 C 1203.25 737.912 1220.12 755.665 1197.43 776.913 C 1175.91 788.12 1154.94 781.911 1142.86 760.908 C 1151.16 764.999 1161.35 775.777 1171.48 771.657 C 1191.31 763.635 1171.87 744.966 1163.96 736.23 C 1146.81 717.298 1140.41 698.64 1169.43 688.099 z"/>
<path transform="translate(0,0)" fill="rgb(67,33,15)" d="M 1275.84 622.669 C 1280.27 625.666 1288.24 645.04 1289.06 650.433 C 1290.9 662.449 1290.37 669.655 1276.92 672.127 C 1246.81 668.848 1267.06 637.385 1275.84 622.669 z"/>
<path transform="translate(0,0)" fill="rgb(67,33,15)" d="M 1134.24 648.837 C 1138.38 650.168 1140.13 651.625 1142.68 655.04 C 1144.29 665.596 1121.33 672.108 1112.76 675.589 C 1109.92 677.047 1109.22 677.747 1106.21 677.417 L 1105.71 675.851 C 1109.12 669.351 1127.85 652.114 1134.24 648.837 z"/>
<path transform="translate(0,0)" fill="rgb(155,153,155)" d="M 923.567 270.643 C 925.056 260.11 928.208 251.838 937.142 245.224 C 944.323 239.964 953.345 237.873 962.108 239.438 C 973.736 241.436 979.196 247.18 985.453 256.24 C 994.171 248.088 1001.73 243.322 1014.32 243.708 C 1023.47 243.906 1032.14 247.831 1038.33 254.574 C 1045.9 262.769 1047.23 269.883 1048.91 280.413 C 1060.88 278.123 1072.1 279.289 1082.48 286.178 C 1091.91 292.568 1098.36 302.487 1100.38 313.693 C 1102.32 324.51 1099.81 335.654 1093.42 344.593 C 1079.11 364.844 1059.38 364.868 1038.01 357.611 C 1041.97 382.433 1043.64 399.821 1042.03 425.294 L 1041.96 425.946 C 1034.1 428.407 1039.07 434.488 1025.4 426.449 L 1016.22 422.304 L 1013.09 419.321 L 1006.82 418.325 L 998.399 417.737 L 997.021 417.932 C 989.853 415.668 953.36 414.101 948.09 417.199 C 943.09 417.001 934.903 417.706 930.347 419.566 C 923.352 420.231 906.444 425.413 902.217 424.172 L 901.533 421.233 C 902.838 387.958 900.327 385.317 908.419 353.271 C 894.601 350.127 883.28 345.883 875.133 333.226 C 869.229 323.855 867.323 312.511 869.838 301.724 C 876.005 275.427 899.34 267.645 923.567 270.643 z"/>
<path transform="translate(0,0)" fill="rgb(112,73,21)" d="M 1013.09 419.321 C 1023.65 420.743 1032.81 423.904 1042.03 425.294 L 1041.96 425.946 C 1034.1 428.407 1039.07 434.488 1025.4 426.449 L 1016.22 422.304 L 1013.09 419.321 z"/>
<path transform="translate(0,0)" fill="rgb(250,250,250)" d="M 874.159 297.489 C 884.893 273.478 903.293 278.433 924.377 280.139 C 924.76 280.17 926.71 279.975 926.459 279.162 C 921.993 239.605 964.106 237.357 982.195 267.119 C 989.291 258.966 995.524 252.981 1007.11 252.275 C 1015.74 251.739 1024.2 254.758 1030.54 260.629 C 1038.23 267.694 1041.48 277.095 1041.77 287.317 C 1041.79 288.033 1041.81 288.75 1041.82 289.466 C 1058.51 286.798 1068.99 287.159 1082.29 298.991 C 1115.43 334.918 1073.98 378.888 1032.99 349.514 C 1034.59 358.948 1036.26 368.371 1038 377.781 C 987.243 366.892 956.749 365.019 906.201 377.896 C 907.887 369.02 910.698 358.443 912.827 349.526 C 881.015 347.43 868.543 328.168 874.159 297.489 z"/>
<path transform="translate(0,0)" fill="rgb(233,229,227)" d="M 874.159 297.489 C 888.692 306.773 896.154 307.552 912.963 305.589 C 914.002 314.032 914.236 319.203 918.814 326.623 C 932.476 348.767 957.59 346.248 974.135 329.358 C 987.843 346.673 1002.49 353.597 1022.65 340.39 C 1034.78 332.446 1030.78 313.242 1040.35 314.754 C 1060.47 317.932 1069.35 313.617 1082.29 298.991 C 1115.43 334.918 1073.98 378.888 1032.99 349.514 C 1034.59 358.948 1036.26 368.371 1038 377.781 C 987.243 366.892 956.749 365.019 906.201 377.896 C 907.887 369.02 910.698 358.443 912.827 349.526 C 881.015 347.43 868.543 328.168 874.159 297.489 z"/>
<path transform="translate(0,0)" fill="rgb(233,229,227)" d="M 955.569 376.42 C 979.387 373.429 1014.78 379.743 1038.21 384.987 L 1038.18 416.253 C 1022.13 411.899 1006.75 409.621 990.249 408.056 C 956.832 406.051 937.302 407.908 905.209 416.236 L 905.117 385.259 C 923.933 380.115 936.062 377.767 955.569 376.42 z"/>
<path transform="translate(0,0)" fill="rgb(67,33,15)" d="M 1045.9 488.426 C 1060.5 493.596 1075.75 500.366 1090.18 506.267 L 1181.39 544.133 L 1236.95 567.221 C 1249.3 572.366 1261.99 577.291 1273.72 583.71 C 1284.52 589.621 1285.34 600.656 1286.09 611.537 C 1281.35 612.568 1266.86 612.025 1261.71 611.783 C 1261.5 609.71 1261.18 607.536 1260.91 605.461 C 1259.4 603.575 1062.99 523.938 1047.86 517.768 L 1047.35 516.724 C 1046.57 507.308 1046.09 497.872 1045.9 488.426 z"/>
<path transform="translate(0,0)" fill="rgb(67,33,15)" d="M 680.331 469.31 C 687.323 471.77 696.356 487.31 702.449 488.218 C 704.057 487.411 705.158 486.606 706.91 486.76 C 708.12 489.95 708.496 490.584 707.989 493.912 C 705.477 496.519 706.68 495.717 701.996 496.24 C 699.161 498.304 703.068 499.66 700.213 505.007 C 694.818 507.95 696.56 505.435 690.23 506.498 C 689.375 511.808 694.988 511.928 690.766 517.407 L 685.703 517.456 C 686.245 521.242 686.423 521.97 685.631 525.679 C 682.822 528.608 682.914 527.895 678.56 529.206 C 668.333 524.042 661.462 510.895 670.754 502.196 C 679.629 499.764 679.94 509.321 687.421 510.582 C 692.198 502.697 681.399 502.391 680.871 493.962 C 680.532 488.552 684.685 486.379 683.873 481.515 C 681.25 478.809 680.996 479.495 676.762 478.736 C 676.135 476.4 678.972 472.068 680.331 469.31 z M 698.456 501.005 C 697.259 494.239 692.804 487.83 686.616 484.716 C 684.121 493.835 690.441 498.855 698.456 501.005 z"/>
<path transform="translate(0,0)" fill="rgb(67,33,15)" d="M 1219.12 410.794 C 1235.96 415.704 1249 441.131 1222.05 438.796 C 1221.47 438.745 1216.53 434.936 1214.12 434.171 L 1210.42 436.469 C 1209.43 438.644 1210.12 440.737 1210.24 443.223 L 1209.09 443.994 C 1208.49 443.702 1207.89 443.401 1207.3 443.089 C 1204.14 441.454 1200.87 439.574 1199.78 436.128 C 1203.63 427.665 1220.22 425.815 1219.12 410.794 z M 1223.45 434.565 C 1226.97 432.477 1228.35 431.934 1230.52 428.322 C 1231.12 423.897 1230.23 423.042 1226.21 420.588 C 1223.22 423.489 1219.21 426.602 1218.4 430.435 C 1220.04 433.581 1219.6 432.615 1223.45 434.565 z"/>
<path transform="translate(0,0)" fill="rgb(67,33,15)" d="M 627.025 569.606 C 647.684 569.472 636.615 581.401 640.67 591.62 C 645.403 593.851 645.793 590.98 650.726 592.575 C 651.346 596.229 648.368 601.889 646.375 605.028 L 645.123 603.954 C 639.661 597.187 629.22 594.902 621.406 591.499 C 620.901 591.278 619.588 593.527 616.694 592.93 C 613.989 587.213 622.386 573.793 627.025 569.606 z M 635.661 589.215 C 636.977 585.588 637.304 584.99 636.221 581.344 C 633.174 577.047 630.227 576.992 625.397 576.593 C 623.691 580.913 623.192 580.142 624.286 583.776 C 627.201 586.493 631.796 587.787 635.661 589.215 z"/>
<path transform="translate(0,0)" fill="rgb(251,175,6)" d="M 1136.15 375.998 C 1148.7 375.073 1173.66 389.095 1154.18 401.582 C 1142.52 402.791 1120.05 390.556 1136.15 375.998 z"/>
<path transform="translate(0,0)" fill="rgb(251,175,6)" d="M 834.866 371.204 C 838.235 370.524 845.116 372.341 846.089 375.605 C 849.548 387.198 835.737 392.51 828.684 395.444 C 820.119 395.503 812.234 390.665 817.541 381.467 C 821.719 374.225 827.482 373.164 834.866 371.204 z"/>
<path transform="translate(0,0)" fill="rgb(67,33,15)" d="M 1310.06 541.182 C 1314.21 541.058 1316.83 540.56 1319.27 544.228 L 1318.3 548.999 C 1319.64 551.774 1320.51 551.436 1323.87 552.994 C 1325.57 555.922 1325.27 554.595 1324.99 558.014 C 1323.54 559.259 1323.3 559.192 1322.46 560.846 C 1327.02 562.754 1329.45 562.914 1330.05 568.02 C 1325.62 575.786 1318.15 572.353 1313.98 576.203 C 1315.29 577.524 1315.92 577.852 1316.33 579.636 C 1310.62 583.155 1307.68 578.519 1304.59 574.254 C 1310.11 567.818 1313.76 569.987 1321.89 566.056 C 1318.7 561.938 1319.37 560.018 1317.48 555.378 C 1310.09 550.767 1306.35 558.306 1298.21 557.7 C 1296.17 555.351 1296.73 556.465 1296.45 553.074 C 1300.31 549.717 1307.3 549.213 1312.71 545.974 C 1311.52 544.018 1312.32 544.637 1310.44 543.821 L 1310.06 541.182 z"/>
<path transform="translate(0,0)" fill="rgb(67,33,15)" d="M 1322.41 580.136 C 1330.19 580.308 1337.42 583.357 1341.15 590.657 C 1341.77 599.246 1328.92 599.117 1321.62 600.641 C 1323.57 601.855 1324.54 602.148 1325.29 604.289 L 1323.99 605.307 C 1320.75 605.429 1320.26 605.108 1317.31 603.698 C 1314.74 599.242 1317.47 597.426 1316.81 596.154 C 1312.61 587.976 1307.11 584.049 1322.41 580.136 z"/>
<path transform="translate(0,0)" fill="rgb(67,33,15)" d="M 1241.77 467.19 C 1238.27 467.828 1235.92 468.624 1232.63 467.184 C 1231.98 464.951 1232.12 464.207 1232.2 461.94 L 1230.93 460.294 L 1229.8 460.233 C 1226.6 460.047 1225.32 460.277 1222.98 458.179 C 1216.21 446.746 1237.99 433.464 1252.05 451.028 C 1248.71 453.697 1239.57 460.436 1237.48 463.461 C 1240.91 466.649 1239.21 461.666 1243.26 466.756 L 1241.77 467.19 z M 1232.73 456.669 C 1236.34 454.496 1241.19 452.06 1243.52 448.769 L 1243.05 447.064 C 1241.11 446.325 1240.52 446.008 1238.39 445.822 C 1234.72 448.569 1231.3 450.748 1228.72 454.537 L 1228.77 456.42 C 1230.49 456.721 1230.99 456.932 1232.73 456.669 z"/>
<path transform="translate(0,0)" fill="rgb(67,33,15)" d="M 744.756 423.242 C 747.417 420.168 751.019 415.43 755.338 415.255 C 759.936 419.76 760.571 426.038 764.84 428.472 C 767.2 427.78 767.206 427.622 769.091 426.189 C 770.207 429.601 770.121 430.148 769.769 433.745 C 766.992 436.566 765.877 436.196 761.773 435.967 C 759.829 452.713 741.253 441.849 744.756 423.242 z"/>
<path transform="translate(0,0)" fill="rgb(67,33,15)" d="M 643.691 549.771 C 647.6 552.165 655.572 557.545 659.587 558.442 L 659.259 554.489 L 660.452 553.769 L 662.771 555.038 C 664.633 558.058 664.733 558.461 664.732 562.011 C 661.917 567.578 662.964 562.606 659.292 566.225 L 659.75 570.855 L 659.891 572.763 C 654.77 582.728 628.638 571.253 643.691 549.771 z"/>
<path transform="translate(0,0)" fill="rgb(67,33,15)" d="M 654.389 525.759 C 662.006 525.066 665.263 528.694 673.275 531.945 L 673.067 530.173 L 673.825 529.338 C 677.779 531.51 679.596 535.786 677.363 539.859 C 670.244 541.797 662.477 532.769 657.49 533.189 C 658.19 536.307 659.605 537.658 661.571 540.187 C 666.054 544.615 669.612 544.363 670.996 549.52 C 669.63 552.202 670.426 551.616 668.108 552.595 C 664.257 551.496 658.677 546.643 654.799 544.062 C 650.51 544.525 653.942 545.767 650.729 547.553 C 648.666 544.484 647.825 543.611 647.677 539.799 C 650.084 536.254 649.016 538.51 653.704 536.343 C 653.124 531.388 652.927 530.517 654.389 525.759 z"/>
<path transform="translate(0,0)" fill="rgb(67,33,15)" d="M 1295.7 530.79 C 1293.69 533.765 1293.16 534.087 1293.26 537.473 C 1294.95 540.521 1296.07 541.212 1298.78 543.25 L 1299.67 543.912 L 1299.12 544.518 C 1274.7 545.67 1290.95 512.228 1310.16 527.162 C 1312.02 530.732 1313.01 532.002 1312.5 536.093 C 1307.18 544.319 1299.54 535.597 1295.7 530.79 z"/>
<path transform="translate(0,0)" fill="rgb(60,36,27)" d="M 1310.16 527.162 C 1312.02 530.732 1313.01 532.002 1312.5 536.093 C 1307.18 544.319 1299.54 535.597 1295.7 530.79 C 1299.08 529.754 1298.03 530.071 1301.9 530.884 C 1304.31 526.476 1305.4 527.566 1310.16 527.162 z"/>
<path transform="translate(0,0)" fill="rgb(67,33,15)" d="M 1280.16 491.984 C 1286.86 492.336 1293.47 496.05 1292.62 503.517 C 1285.81 513.519 1282.88 503.554 1275.65 501.821 C 1272.72 503.64 1273.38 503.69 1271.89 507.284 C 1276.92 511.538 1276.91 508.336 1280.82 511.936 L 1279.97 513.63 C 1265.55 516.681 1258.57 497.881 1280.16 491.984 z"/>
<path transform="translate(0,0)" fill="rgb(67,33,15)" d="M 706.165 459.67 C 707.912 460.32 709.245 461.123 710.866 462.017 C 714.826 468.592 710.343 468.654 709 476.486 C 710.711 479.434 709.937 479.191 712.428 480.096 C 716.318 478.143 715.966 471.967 719.249 469.487 C 721.053 473.615 720.893 474.761 720.935 479.218 C 708.053 496.474 687.437 471.406 706.165 459.67 z"/>
<path transform="translate(0,0)" fill="rgb(251,175,6)" d="M 1092.3 358.581 C 1095.79 357.388 1099.66 358.178 1102.4 360.645 C 1105.15 363.112 1106.35 366.872 1105.54 370.473 C 1104.72 374.074 1102.03 376.955 1098.49 378.003 C 1093.17 379.579 1087.56 376.61 1085.88 371.323 C 1084.19 366.037 1087.05 360.374 1092.3 358.581 z"/>
<path transform="translate(0,0)" fill="rgb(251,175,6)" d="M 1180.4 400.455 C 1185.78 399.16 1191.21 402.412 1192.61 407.77 C 1194.01 413.127 1190.86 418.619 1185.53 420.12 C 1181.99 421.117 1178.19 420.124 1175.59 417.523 C 1172.99 414.923 1171.99 411.12 1172.99 407.58 C 1173.99 404.04 1176.82 401.315 1180.4 400.455 z"/>
<path transform="translate(0,0)" fill="rgb(251,175,6)" d="M 780.07 400.58 C 785.423 399.508 790.655 402.894 791.871 408.216 C 793.087 413.538 789.844 418.86 784.557 420.22 C 781.008 421.132 777.243 420.046 774.725 417.382 C 772.207 414.719 771.335 410.899 772.446 407.406 C 773.556 403.913 776.476 401.299 780.07 400.58 z"/>
<path transform="translate(0,0)" fill="rgb(251,175,6)" d="M 872.666 357.06 C 878.139 356.587 882.967 360.621 883.475 366.091 C 883.982 371.561 879.978 376.414 874.512 376.956 C 868.997 377.502 864.091 373.455 863.579 367.937 C 863.067 362.418 867.144 357.538 872.666 357.06 z"/>
<path transform="translate(0,0)" fill="rgb(67,33,15)" d="M 1303.98 500.529 C 1306.74 502.08 1310.67 506.183 1313.1 508.521 C 1307.67 511.109 1289.38 519.619 1284.93 523.003 C 1286.51 524.232 1288.47 524.88 1290.34 525.654 C 1285.59 527.987 1278.34 528.418 1277.83 521.715 C 1281.53 515.425 1292.78 511.68 1298.97 507.796 C 1303.6 504.889 1302.58 505.673 1303.98 500.529 z"/>
<path transform="translate(0,0)" fill="rgb(67,33,15)" d="M 1268.42 471.956 C 1273.97 474.513 1275 473.824 1280.98 474.707 C 1282.42 477.613 1279.22 476.928 1277.69 480.447 C 1277.39 481.131 1279.77 481.284 1279.64 484.922 L 1278.08 485.906 C 1276.6 484.843 1275.34 483.913 1273.9 482.782 C 1269.98 483.632 1265.09 487.631 1261.63 490.096 L 1262.32 492.825 C 1264.89 493.907 1264.98 493.945 1266.87 495.946 L 1265.92 497.076 C 1260.57 498.077 1256.45 496.327 1255.02 490.883 C 1256.42 480.91 1268.56 483.547 1268.42 471.956 z"/>
<path transform="translate(0,0)" fill="rgb(67,33,15)" d="M 728.243 440.824 C 728.201 436.6 727.792 438.273 729.927 434.497 C 738.892 430.784 739.135 442.979 745.516 446.801 C 745.983 445.444 746.417 444.076 746.819 442.698 L 748.094 442.452 C 750.933 446.538 750.303 450.955 746.483 454.258 C 740.3 454.439 735.95 446.088 732.447 441.289 L 731.696 441.689 L 731.601 442.187 L 728.243 440.824 z"/>
<path transform="translate(0,0)" fill="rgb(67,33,15)" d="M 1249.17 478.729 C 1251.79 474.509 1249.16 468.906 1251.23 460.833 C 1253.45 458.105 1252.37 458.644 1255.36 457.936 C 1258.36 458.874 1258.69 459.158 1261.36 460.89 L 1259.69 464.069 L 1256.77 464.634 C 1254.13 471.515 1260.59 473.907 1254.68 481.002 C 1251.89 482.212 1251.42 482.455 1248.41 482.59 L 1249.17 478.729 z"/>
<path transform="translate(0,0)" fill="rgb(233,229,227)" d="M 824.128 406.628 C 824.958 406.967 825.041 407.242 825.749 407.939 C 815.143 425.812 836.737 429.289 823.997 444.888 C 823.06 443.936 823.02 443.63 822.334 442.454 L 822.713 441.057 C 827.326 423.43 807.643 421.424 824.128 406.628 z"/>
<path transform="translate(0,0)" fill="rgb(67,33,15)" d="M 712.068 450.646 C 714.715 451.757 722.011 455.284 724.252 455.307 C 726.208 456.393 730.093 462.509 731.636 464.723 C 731.676 468.012 732.154 466.719 729.642 469.381 C 724.61 469.288 720.29 460.106 715.564 455.435 L 715.105 460.102 L 714.027 460.64 C 710.532 457.323 711.043 455.108 712.068 450.646 z"/>
<path transform="translate(0,0)" fill="rgb(67,33,15)" d="M 728.243 440.824 L 731.601 442.187 C 727.479 449.012 720.445 444.964 724.252 455.307 C 722.011 455.284 714.715 451.757 712.068 450.646 C 717.556 449.52 717.647 452.018 719.862 445.401 C 721.124 441.629 724.665 441.68 728.243 440.824 z"/>
<path transform="translate(0,0)" fill="rgb(233,229,227)" fill-opacity="0.972549" d="M 839.451 416.748 L 840.213 417.993 C 839.039 430.541 846.656 435.016 841.332 444.958 L 839.961 443.49 C 840.689 433.453 832.545 425.348 839.451 416.748 z"/>
<path transform="translate(0,0)" fill="rgb(233,229,227)" fill-opacity="0.988235" d="M 805.386 417.516 L 806.666 418.834 C 804.826 429.043 812.845 436.021 807.833 444.305 C 806.243 442.758 803.382 428.107 802.813 425.372 C 802.104 421.972 803.429 420.206 805.386 417.516 z"/>
<path transform="translate(0,0)" fill="rgb(0,0,0)" d="M 1243.26 466.756 L 1246.07 468.092 C 1247.78 473.686 1242.68 473.777 1249.17 478.729 L 1248.41 482.59 C 1242.37 477.53 1237.77 475.515 1241.77 467.19 L 1243.26 466.756 z"/>
<path transform="translate(0,0)" fill="rgb(60,36,27)" d="M 1261.36 460.89 C 1264.01 463.426 1264.97 464.051 1265.76 467.684 C 1264.95 471.411 1265.69 470.2 1263.24 472.617 L 1260.95 472.273 C 1258.43 468.744 1259.62 469.638 1259.69 464.069 L 1261.36 460.89 z"/>
<path transform="translate(0,0)" fill="rgb(60,36,27)" d="M 1330.17 561.241 C 1337 560.319 1340.55 560.353 1343.67 566.673 C 1341.25 567.245 1338.73 567.164 1336.35 566.438 C 1333.16 565.485 1331.76 563.969 1330.17 561.241 z"/>
</svg>